<?xml version="1.0" standalone="no"?>
<!DOCTYPE svg PUBLIC "-//W3C//DTD SVG 20010904//EN"
 "http://www.w3.org/TR/2001/REC-SVG-20010904/DTD/svg10.dtd">
<svg version="1.0" xmlns="http://www.w3.org/2000/svg"
 width="421.000000pt" height="288.000000pt" viewBox="0 0 421.000000 288.000000"
 preserveAspectRatio="xMidYMid meet">

<g transform="translate(0.000000,288.000000) scale(0.100000,-0.100000)"
fill="#000000" stroke="none">
<path d="M1853 2570 c-22 -13 -34 -29 -38 -52 -3 -18 -5 -286 -3 -595 l3 -561
24 -26 c23 -24 30 -26 118 -26 l93 0 0 -182 0 -183 183 183 182 182 613 0
c596 0 613 1 632 20 11 11 22 30 25 42 3 13 4 269 3 570 l-3 548 -375 -360
c-206 -197 -378 -358 -381 -357 -3 1 -74 79 -159 172 -84 94 -168 186 -187
206 l-34 36 226 197 c124 109 225 199 225 202 0 2 -251 4 -557 4 -535 0 -559
-1 -590 -20z m842 -637 c102 -113 185 -209 185 -212 0 -4 -62 -21 -137 -39
-76 -18 -199 -48 -274 -66 l-137 -33 9 26 c4 14 29 96 54 181 81 270 106 350
110 350 2 0 88 -93 190 -207z"/>
<path d="M419 1275 c-42 -23 -59 -58 -59 -121 0 -50 3 -59 34 -90 31 -31 39
-34 95 -34 76 0 118 20 137 65 31 75 8 156 -51 181 -43 18 -122 17 -156 -1z"/>
<path d="M760 1235 c0 -11 11 -15 40 -15 l40 0 0 -475 0 -475 -40 0 c-29 0
-40 -4 -40 -15 0 -12 17 -15 95 -15 78 0 95 3 95 15 0 11 -11 15 -40 15 l-40
0 0 445 c0 245 3 445 8 445 4 0 117 -207 251 -460 l244 -460 99 0 98 0 0 490
0 490 40 0 c29 0 40 4 40 15 0 12 -17 15 -95 15 -78 0 -95 -3 -95 -15 0 -11
11 -15 40 -15 l40 0 0 -340 c0 -187 -4 -340 -8 -340 -4 0 -91 160 -192 355
l-185 355 -197 0 c-169 0 -198 -2 -198 -15z"/>
<path d="M2690 1149 c-41 -11 -92 -24 -112 -30 l-37 -10 -3 -92 -3 -92 -37 -3
c-51 -4 -49 -22 2 -22 l40 0 0 -262 c0 -234 2 -267 19 -303 23 -50 45 -70 100
-90 52 -18 168 -20 223 -3 63 19 128 111 128 182 0 32 -16 15 -28 -30 -8 -28
-26 -60 -46 -80 -53 -53 -107 -42 -126 24 -5 21 -10 149 -10 300 l0 262 95 0
c123 0 125 18 3 22 l-93 3 -3 123 c-3 140 7 132 -112 101z"/>
<path d="M1973 930 c-121 -26 -215 -102 -250 -203 -24 -70 -24 -222 1 -294 23
-69 91 -144 158 -174 47 -21 67 -24 183 -24 114 0 136 3 180 23 138 63 204
218 176 409 -20 132 -90 222 -199 253 -51 15 -199 21 -249 10z m144 -32 c27
-22 37 -114 37 -333 -1 -178 -4 -227 -17 -257 -32 -74 -106 -76 -142 -3 -18
37 -20 60 -20 270 0 198 3 237 18 277 24 62 79 82 124 46z"/>
<path d="M3314 930 c-101 -21 -200 -93 -237 -172 -75 -159 -25 -392 102 -473
88 -55 262 -73 370 -38 63 20 125 77 153 140 28 64 8 77 -22 14 -41 -88 -106
-131 -197 -131 -108 0 -154 69 -161 238 l-4 102 201 0 201 0 0 48 c0 117 -57
211 -151 251 -57 25 -188 36 -255 21z m133 -46 c12 -19 18 -55 21 -135 l5
-109 -77 0 -76 0 0 83 c0 133 23 187 80 187 21 0 35 -8 47 -26z"/>
<path d="M280 910 c0 -5 18 -10 40 -10 l40 0 0 -320 0 -320 -35 0 c-19 0 -35
-4 -35 -10 0 -6 77 -10 210 -10 124 0 210 4 210 9 0 6 -17 11 -37 13 l-38 3
-3 328 -2 327 -175 0 c-110 0 -175 -4 -175 -10z"/>
</g>
</svg>
